<svg id="add_1_" data-name="add (1)" xmlns="http://www.w3.org/2000/svg" width="19" height="19" viewBox="0 0 19 19">
  <g id="Group_374" data-name="Group 374">
    <g id="Group_373" data-name="Group 373">
      <path id="Path_1667" data-name="Path 1667" d="M9.5,0A9.5,9.5,0,1,0,19,9.5,9.51,9.51,0,0,0,9.5,0Zm0,17.528A8.028,8.028,0,1,1,17.528,9.5,8.038,8.038,0,0,1,9.5,17.528Z" fill="#004e9c"/>
    </g>
  </g>
  <g id="Group_376" data-name="Group 376" transform="translate(5.076 5.01)">
    <g id="Group_375" data-name="Group 375">
      <path id="Path_1668" data-name="Path 1668" d="M145.133,138.925h-2.949v-2.949a.737.737,0,0,0-1.475,0v2.949h-2.949a.737.737,0,0,0,0,1.475h2.949v2.949a.737.737,0,1,0,1.475,0V140.4h2.949a.737.737,0,1,0,0-1.475Z" transform="translate(-137.022 -135.238)" fill="#004e9c"/>
    </g>
  </g>
</svg>
