<svg xmlns="http://www.w3.org/2000/svg" width="15" height="17" viewBox="0 0 15 17">
  <g id="calendar_icon" data-name="calendar icon" transform="translate(-25.627)">
    <path id="Path_3064" data-name="Path 3064" d="M37.523,8.349h1.163a.482.482,0,0,0,.477-.486V6.677a.482.482,0,0,0-.477-.486H37.523a.482.482,0,0,0-.477.486V7.863A.482.482,0,0,0,37.523,8.349Zm.012-1.66h1.139V7.851H37.534ZM37.523,11.5h1.163a.482.482,0,0,0,.477-.486V9.831a.482.482,0,0,0-.477-.486H37.523a.482.482,0,0,0-.477.486v1.186A.482.482,0,0,0,37.523,11.5Zm.012-1.66h1.139v1.162H37.534ZM34.2,8.349h1.163a.482.482,0,0,0,.477-.486V6.677a.482.482,0,0,0-.477-.486H34.2a.482.482,0,0,0-.477.486V7.863A.482.482,0,0,0,34.2,8.349Zm.012-1.66h1.139V7.851H34.216Zm-5.485,5.663H27.569a.482.482,0,0,0-.477.486v1.186a.482.482,0,0,0,.477.486h1.163a.482.482,0,0,0,.477-.486V12.838A.482.482,0,0,0,28.731,12.352Zm-.012,1.66H27.58V12.85H28.72Zm.012-7.821H27.569a.482.482,0,0,0-.477.486V7.863a.482.482,0,0,0,.477.486h1.163a.482.482,0,0,0,.477-.486V6.677A.482.482,0,0,0,28.731,6.191Zm-.012,1.66H27.58V6.689H28.72ZM34.2,11.429h1.163a.482.482,0,0,0,.477-.486V9.757a.482.482,0,0,0-.477-.486H34.2a.482.482,0,0,0-.477.486v1.186A.482.482,0,0,0,34.2,11.429Zm.012-1.66h1.139v1.162H34.216ZM39.4,1.138H38.361V.757A.751.751,0,0,0,37.618,0h-.112a.751.751,0,0,0-.742.757v.381H29.49V.757A.751.751,0,0,0,28.748,0h-.112a.751.751,0,0,0-.742.757v.381H26.849a1.236,1.236,0,0,0-1.222,1.247v13.37A1.235,1.235,0,0,0,26.848,17H39.406a1.235,1.235,0,0,0,1.221-1.245V2.385A1.236,1.236,0,0,0,39.4,1.138ZM37.252.757A.257.257,0,0,1,37.506.5h.112a.257.257,0,0,1,.254.259v.381h-.62Zm-8.87,0A.257.257,0,0,1,28.636.5h.112A.257.257,0,0,1,29,.757v.381h-.62V.757Zm11.757,15a.741.741,0,0,1-.733.747H26.848a.741.741,0,0,1-.733-.747v0a1.2,1.2,0,0,0,.734.251h9.9a1.2,1.2,0,0,0,.864-.365l2.525-2.575Zm-2.774-.566a1.085,1.085,0,0,0,.03-.251V13.275a.564.564,0,0,1,.557-.568h1.63a1.025,1.025,0,0,0,.246-.03ZM40.139,4.7h-10.4a.249.249,0,0,0,0,.5h10.4V11.64a.564.564,0,0,1-.557.569h-1.63a1.058,1.058,0,0,0-1.046,1.067v1.662a.564.564,0,0,1-.557.569h-9.5a.742.742,0,0,1-.734-.749V5.195h2.643a.249.249,0,0,0,0-.5H26.115V2.385a.742.742,0,0,1,.734-.749h1.044v.732a.751.751,0,0,0,.742.757.249.249,0,0,0,0-.5.257.257,0,0,1-.254-.259V1.636h8.382v.732a.751.751,0,0,0,.743.757.249.249,0,0,0,0-.5.257.257,0,0,1-.254-.259V1.636H39.4a.742.742,0,0,1,.734.749ZM28.731,9.271H27.569a.482.482,0,0,0-.477.486v1.186a.482.482,0,0,0,.477.486h1.163a.482.482,0,0,0,.477-.486V9.757A.482.482,0,0,0,28.731,9.271Zm-.012,1.66H27.58V9.769H28.72Zm2.167-2.582h1.163a.482.482,0,0,0,.477-.486V6.677a.482.482,0,0,0-.477-.486H30.887a.482.482,0,0,0-.477.486V7.863A.482.482,0,0,0,30.887,8.349Zm.012-1.66h1.139V7.851H30.9Zm3.318,7.323a.244.244,0,0,0-.488.012.482.482,0,0,0,.477.486h1.163a.482.482,0,0,0,.477-.486V12.838a.482.482,0,0,0-.477-.486H34.2a.482.482,0,0,0-.477.486v.342a.244.244,0,1,0,.488,0v-.33h1.139v1.162Zm-3.329-2.582h1.163a.482.482,0,0,0,.477-.486V9.757a.482.482,0,0,0-.477-.486H30.887a.482.482,0,0,0-.477.486v1.186A.482.482,0,0,0,30.887,11.429Zm.012-1.66h1.139v1.162H30.9Zm-.012,4.741h1.163a.482.482,0,0,0,.477-.486V12.838a.482.482,0,0,0-.477-.486H30.887a.482.482,0,0,0-.477.486v1.186A.482.482,0,0,0,30.887,14.51Zm.012-1.66h1.139v1.162H30.9Z" fill="#025fbf"/>
  </g>
</svg>
