<svg id="Group_358" data-name="Group 358" xmlns="http://www.w3.org/2000/svg" width="37" height="37" viewBox="0 0 37 37">
  <g id="Group_357" data-name="Group 357">
    <path id="Path_1658" data-name="Path 1658" d="M-375.787,242.969a18.5,18.5,0,0,1-18.566-18.489,18.511,18.511,0,0,1,18.473-18.511A18.506,18.506,0,0,1-357.353,224.5,18.5,18.5,0,0,1-375.787,242.969ZM-377.55,224.6c-1.59,1.511-3.111,2.936-4.606,4.387-.768.745-.818,1.515-.2,2.1.575.545,1.349.459,2.053-.249,1.33-1.338,2.652-2.685,3.98-4.025.151-.152.323-.284.518-.455,1.522,1.529,2.991,3.01,4.468,4.485.722.721,1.537.79,2.114.2s.5-1.368-.246-2.111c-.944-.942-1.889-1.882-2.848-2.809-.553-.535-1.134-1.042-1.62-1.486,1.529-1.586,2.918-3.039,4.322-4.478.815-.836.952-1.61.357-2.223-.612-.63-1.391-.528-2.219.3q-1.79,1.785-3.575,3.575c-.258.258-.523.51-.824.8-1.491-1.5-2.9-2.933-4.331-4.35a2.161,2.161,0,0,0-.784-.557,1.192,1.192,0,0,0-1.5.543,1.3,1.3,0,0,0,.27,1.711Z" transform="translate(394.353 -205.969)" fill="#cde0f9"/>
  </g>
</svg>
