<svg id="Group_19" data-name="Group 19" xmlns="http://www.w3.org/2000/svg" xmlns:xlink="http://www.w3.org/1999/xlink" width="129.783" height="76.802" viewBox="0 0 129.783 76.802">
  <defs>
    <clipPath id="clip-path">
      <rect id="Rectangle_10" data-name="Rectangle 10" width="129.783" height="76.802" fill="#ffcb00"/>
    </clipPath>
  </defs>
  <g id="Group_15" data-name="Group 15" clip-path="url(#clip-path)">
    <path id="Path_27" data-name="Path 27" d="M129.784,62.355a4.431,4.431,0,0,1-4.836,2.812c-1.8-.124-3.625-.025-5.431-.025-2.316,7.45-7.1,11.871-15.06,11.584-7.344-.265-11.74-4.621-13.785-11.547H52.313c-.11.318-.247.656-.345,1a14.594,14.594,0,0,1-28.077.024c-.241-.867-.589-1.114-1.455-1.087-2.109.066-4.222.033-6.334.018A3.729,3.729,0,0,1,12.2,61.25c-.015-3.712,0-7.425,0-11.317H6.229c-.8,0-1.605.012-2.407,0a3.8,3.8,0,1,1,.03-7.593q16.787-.019,33.574,0a4,4,0,0,0,4.1-2.375,3.783,3.783,0,0,0-3.659-5.23c-2.153-.046-4.307-.01-6.461-.01q-13.746,0-27.493,0a3.795,3.795,0,0,1-1.134-7.449,5.529,5.529,0,0,1,1.5-.142c7.348-.008,14.7,0,22.045-.01,2.808-.005,4.456-1.828,4.152-4.519a2.777,2.777,0,0,0-2.126-2.543,8.5,8.5,0,0,0-2.247-.274c-6.039-.021-12.078-.009-18.117-.013-2.477,0-4.14-1.524-4.15-3.777s1.651-3.813,4.1-3.822c1.351-.005,2.7,0,4.181,0,.028-.389.074-.749.075-1.108.007-2.365-.005-4.731.006-7.1A3.729,3.729,0,0,1,16.155,0q16.66-.011,33.321,0H84.924V1.467q0,10.264,0,20.528c0,3.164,1.47,4.62,4.662,4.621,9.333,0,18.667-.07,28,.035a12.108,12.108,0,0,1,9.752,4.576c1.123,1.432,1.649,3.333,2.446,5.021Zm-84.908-.069a6.965,6.965,0,1,0-6.987,6.9,7.055,7.055,0,0,0,6.987-6.9m67.162-.076a6.966,6.966,0,1,0-6.912,6.982,7.055,7.055,0,0,0,6.912-6.982" transform="translate(0 0)" fill="#ffcb00"/>
    <path id="Path_28" data-name="Path 28" d="M385.5,21.392H364.7V3.274c10.431,2,16.012,9.485,20.8,18.118" transform="translate(-272.108 -2.443)" fill="#ffcb00"/>
  </g>
</svg>
