<svg xmlns="http://www.w3.org/2000/svg" width="8.514" height="4.463" viewBox="0 0 8.514 4.463">
  <g id="Group_7" data-name="Group 7" transform="translate(-1331.556 -1422.242)">
    <g id="Group_6" data-name="Group 6" transform="translate(1331.556 1422.242)">
      <path id="Path_16" data-name="Path 16" d="M1335.818,1425.734l2.139-2.028c.467-.443.932-.887,1.4-1.327a.405.405,0,0,1,.7.172.422.422,0,0,1-.156.432q-.763.719-1.523,1.442l-2.206,2.09a.431.431,0,0,1-.709.007q-1.859-1.76-3.715-3.524a.7.7,0,0,1-.18-.288.375.375,0,0,1,.193-.411.387.387,0,0,1,.466.046c.23.207.452.422.676.634l2.8,2.655C1335.738,1425.665,1335.772,1425.694,1335.818,1425.734Z" transform="translate(-1331.556 -1422.242)" fill="#44709b"/>
    </g>
  </g>
</svg>
