<svg id="Group_21" data-name="Group 21" xmlns="http://www.w3.org/2000/svg" xmlns:xlink="http://www.w3.org/1999/xlink" width="138.858" height="79.564" viewBox="0 0 138.858 79.564">
  <defs>
    <clipPath id="clip-path">
      <rect id="Rectangle_12" data-name="Rectangle 12" width="138.858" height="79.564" fill="#ffcb00"/>
    </clipPath>
  </defs>
  <g id="Group_20" data-name="Group 20" transform="translate(0 0)" clip-path="url(#clip-path)">
    <path id="Path_34" data-name="Path 34" d="M0,7.531a26.757,26.757,0,0,1,1.7-3.47C3.658,1.162,6.57.011,9.964.009q41.2-.018,82.41,0a9.715,9.715,0,0,1,8.74,4.976c4.722,7.637,9.506,15.236,14.222,22.877a2.633,2.633,0,0,0,2.134,1.372c10.568,1.231,19.974,10.551,21.049,21.152a89.422,89.422,0,0,1,.239,12.307,8.975,8.975,0,0,1-8.842,8.254,4.2,4.2,0,0,0-4.081,2.118,14.514,14.514,0,0,1-24.854-1.091,1.661,1.661,0,0,0-1.679-.988q-29.887.035-59.774,0a1.677,1.677,0,0,0-1.671,1.009A14.07,14.07,0,0,1,25.1,79.536a14.014,14.014,0,0,1-12.843-7.613A1.691,1.691,0,0,0,10.4,71c-3.477.2-6.446-.877-8.512-3.754A24.849,24.849,0,0,1,0,63.4V7.531M80.853,35.375h28.16C103.672,26.818,98.43,18.4,93.148,10.017a1.671,1.671,0,0,0-1.208-.57c-1.758-.063-3.52-.027-5.28-.027H80.853Zm32.734,35.438a6.06,6.06,0,0,0,6.268-5.918,6.073,6.073,0,0,0-12.143-.246,6.056,6.056,0,0,0,5.875,6.164m-88.441.01a6.023,6.023,0,1,0-6.13-5.93,6.073,6.073,0,0,0,6.13,5.93" transform="translate(0 0)" fill="#ffcb00"/>
  </g>
</svg>
