<svg xmlns="http://www.w3.org/2000/svg" width="14.015" height="12.847" viewBox="0 0 14.015 12.847">
  <g id="Group_10" data-name="Group 10" transform="translate(0 -21.333)">
    <g id="Group_9" data-name="Group 9" transform="translate(0 21.333)">
      <g id="Group_8" data-name="Group 8">
        <path id="Path_18" data-name="Path 18" d="M13.777,24.281a9.245,9.245,0,0,0-13.538,0,.891.891,0,0,0,0,1.214l1.347,1.416a.84.84,0,0,0,1.194,0A5.916,5.916,0,0,1,4.3,25.752a.85.85,0,0,0,.457-.732l.2-1.535a6.06,6.06,0,0,1,4.1,0l.2,1.5a.878.878,0,0,0,.452.773,5.934,5.934,0,0,1,1.522,1.16.82.82,0,0,0,1.194,0l1.35-1.42A.891.891,0,0,0,13.777,24.281Z" transform="translate(0 -21.333)" fill="#44709b"/>
        <path id="Path_19" data-name="Path 19" d="M52.306,192.773A1.458,1.458,0,0,0,51.017,192H46a1.458,1.458,0,0,0-1.288.773l-1.869,3.5a1.467,1.467,0,0,0-.172.687v2.044a1.169,1.169,0,0,0,1.168,1.168h9.343a1.169,1.169,0,0,0,1.168-1.168v-2.044a1.469,1.469,0,0,0-.172-.687Zm-5.552,5.651a.584.584,0,1,1,.584-.584A.585.585,0,0,1,46.754,198.423Zm0-1.752a.584.584,0,1,1,.584-.584A.585.585,0,0,1,46.754,196.672Zm0-1.752a.584.584,0,1,1,.584-.584A.585.585,0,0,1,46.754,194.92Zm1.752,3.5a.584.584,0,1,1,.584-.584A.585.585,0,0,1,48.507,198.423Zm0-1.752a.584.584,0,1,1,.584-.584A.585.585,0,0,1,48.507,196.672Zm0-1.752a.584.584,0,1,1,.584-.584A.585.585,0,0,1,48.507,194.92Zm1.751,3.5a.584.584,0,1,1,.584-.584A.585.585,0,0,1,50.258,198.423Zm0-1.752a.584.584,0,1,1,.584-.584A.585.585,0,0,1,50.258,196.672Zm0-1.752a.584.584,0,1,1,.584-.584A.585.585,0,0,1,50.258,194.92Z" transform="translate(-41.499 -187.328)" fill="#44709b"/>
      </g>
    </g>
  </g>
</svg>
