<svg id="Group_14" data-name="Group 14" xmlns="http://www.w3.org/2000/svg" xmlns:xlink="http://www.w3.org/1999/xlink" width="128.884" height="128.886" viewBox="0 0 128.884 128.886">
  <defs>
    <clipPath id="clip-path">
      <rect id="Rectangle_9" data-name="Rectangle 9" width="128.884" height="128.886" fill="#ffcb00"/>
    </clipPath>
  </defs>
  <g id="Group_13" data-name="Group 13" clip-path="url(#clip-path)">
    <path id="Path_22" data-name="Path 22" d="M291.086,178.816c-.164.374-.341.742-.489,1.122a6.49,6.49,0,0,1-6.683,4.092,6.364,6.364,0,0,1-5.684-5.647,18.35,18.35,0,0,1-.138-2.129q-.012-17.618-.006-35.236v-1.683h-4.171v1.312c0,12.081-.038,24.162.039,36.243a45.075,45.075,0,0,0,.877,6.058,5.762,5.762,0,0,1-5.868.645,6.193,6.193,0,0,1-4.043-5.168,10.917,10.917,0,0,1-.066-1.507q-.009-29.385-.012-58.769v-1.224c1.919-.348,3.751-.739,5.6-1a6.671,6.671,0,0,0,6.088-5.44c1.161-4.658,2.475-9.278,3.541-14.009-.186.354-.38.7-.555,1.062-1.875,3.835-3.806,7.642-5.6,11.516a6.8,6.8,0,0,1-5.588,4.066c-6.071.971-12.125,2.045-18.178,3.126-3.308.591-6.114-1.161-6.7-4.282a5.45,5.45,0,0,1,4.769-6.37q7.974-1.38,15.946-2.78c.337-.06.814-.2.938-.452,1.737-3.464,3.423-6.952,4.906-10.57l-4.878,6.4-.414-.094a36.675,36.675,0,0,1,.888-4.621,15.206,15.206,0,0,1,16.347-10.544c4,.413,7.688,3.843,8.853,8.221.074.276.18.544.271.816Z" transform="translate(-162.202 -55.214)" fill="#ffcb00"/>
    <path id="Path_23" data-name="Path 23" d="M15.62,0a34.815,34.815,0,0,1,4.54,1.673A12.437,12.437,0,0,1,25.7,17.52,12.594,12.594,0,0,1,1.558,11.791,12.773,12.773,0,0,1,11.917.249,4.353,4.353,0,0,0,12.6,0Z" transform="translate(-1.023)" fill="#ffcb00"/>
    <path id="Path_24" data-name="Path 24" d="M323.542,0a33.334,33.334,0,0,1,4.311,1.565,12.574,12.574,0,0,1,6.7,12.361,12.6,12.6,0,0,1-22.913,5.8A12.618,12.618,0,0,1,319.707.257,7,7,0,0,0,320.521,0Z" transform="translate(-206.237)" fill="#ffcb00"/>
    <path id="Path_25" data-name="Path 25" d="M158.409,71.267c-4.446.777-8.813,1.531-13.177,2.3a8.546,8.546,0,0,0-2.589,16.134c2.438,1.251,4.958.85,7.489.393,2.711-.49,5.427-.947,8.5-1.481a32.576,32.576,0,0,1-.538,4.793,4.037,4.037,0,0,1-4.045,2.816c-3.146.027-6.292.01-9.439.01q-24.792,0-49.584,0c-3.494,0-5.18-1.674-5.186-5.136,0-.787,0-1.575,0-2.5,2.5.43,4.832.881,7.184,1.221a32.841,32.841,0,0,0,6.087.623,8.282,8.282,0,0,0,7.61-7.43,8.368,8.368,0,0,0-5.988-9.076c-3.278-.82-6.651-1.265-9.982-1.87-1.6-.29-3.2-.568-4.911-.871v-1.28q0-12.71,0-25.421c0-3.276,1.76-5.081,5.029-5.083q29.259-.017,58.519,0c3.173,0,5.077,1.747,5.091,4.8.041,8.809.014,17.619.01,26.428,0,.163-.038.327-.076.633" transform="translate(-59.874 -26.26)" fill="#ffcb00"/>
    <path id="Path_26" data-name="Path 26" d="M26.239,116.768v1.357q-.005,29.261-.012,58.523c0,3.979-1.945,6.52-5.434,7.181a6.425,6.425,0,0,1-4.967-1.283c1.578-2.568,1.342-5.4,1.341-8.191q0-16.8,0-33.6v-1.559H13v1.562q0,17.809,0,35.617a8,8,0,0,1-1.143,4.68,6.479,6.479,0,0,1-7.06,2.631A6.536,6.536,0,0,1,.03,177.834c-.025-.334-.021-.671-.021-1.006Q0,135.359,0,93.889C0,89,2.732,84.854,6.944,83.38a13.166,13.166,0,0,1,10.815.946,14.909,14.909,0,0,1,8.42,12.812,2.919,2.919,0,0,1-.029.5c0,.022-.059.039-.2.127L20.065,89.6l-.171.094c.139.327.263.661.418.98,1.777,3.649,3.573,7.29,5.328,10.95a1.728,1.728,0,0,0,1.46,1.114c5.242.86,10.469,1.806,15.7,2.706a5.6,5.6,0,0,1,4.947,5.2,5.522,5.522,0,0,1-6.282,5.54c-6.474-1.1-12.937-2.27-19.412-3.365a6.172,6.172,0,0,1-4.805-3.765c-2.105-4.42-4.286-8.8-6.437-13.2a3.554,3.554,0,0,0-.727-1.07,4.065,4.065,0,0,0,.08.731c1.479,5.054,2.979,10.1,4.451,15.159,1.041,3.576,3.686,4.939,7.12,5.329,1.483.168,2.947.5,4.5.766" transform="translate(0 -55.073)" fill="#ffcb00"/>
  </g>
</svg>
