<svg id="Group_2" data-name="Group 2" xmlns="http://www.w3.org/2000/svg" xmlns:xlink="http://www.w3.org/1999/xlink" width="128.643" height="128.835" viewBox="0 0 128.643 128.835">
  <defs>
    <clipPath id="clip-path">
      <rect id="Rectangle_5" data-name="Rectangle 5" width="128.643" height="128.835" fill="#ffcb00"/>
    </clipPath>
  </defs>
  <g id="Group_1" data-name="Group 1" clip-path="url(#clip-path)">
    <path id="Path_3" data-name="Path 3" d="M59.826,156.729c-2.182-.322-4.372-.6-6.545-.975a62.272,62.272,0,0,1-29.968-13.943,63.213,63.213,0,0,1-21.781-35.7C-1.971,90.1.582,74.969,8.7,60.817c2.068-3.6,4.774-6.841,7.19-10.244.21-.3.445-.574.821-1.057-.685,0-1.166.006-1.646,0a3.764,3.764,0,1,1,.03-7.524q5.273-.022,10.547,0A3.669,3.669,0,0,1,29.429,45.8c.019,3.431.009,6.861,0,10.292a3.777,3.777,0,1,1-7.531.091,1.185,1.185,0,0,0-.288-.774c-1.47,1.992-3.025,3.927-4.394,5.986A55.792,55.792,0,0,0,8.146,85.042,54.3,54.3,0,0,0,16.065,122c8.743,13.992,21.268,22.907,37.482,26.057,17.576,3.414,33.434-.914,47.286-12.171a55.138,55.138,0,0,0,19.4-31.382c.351-1.544.589-3.115.853-4.678.345-2.036,1.437-3.295,3.146-3.577,1.813-.3,3.27.548,4.193,2.433a1.94,1.94,0,0,0,.222.295v2.511a1.409,1.409,0,0,0-.227.415,62.346,62.346,0,0,1-16.908,34.4,64.245,64.245,0,0,1-35.97,19.421c-2.293.412-4.614.671-6.921,1Z" transform="translate(0 -27.894)" fill="#ffcb00"/>
    <path id="Path_4" data-name="Path 4" d="M358.948,131.659c-.758,1.531-1.766,2.729-3.658,2.76a3.666,3.666,0,0,1-3.827-3.1,63.184,63.184,0,0,0-4.452-14.665,6.045,6.045,0,0,1-.352-3.118,3.363,3.363,0,0,1,3.053-2.711,3.646,3.646,0,0,1,3.916,2.1,67.388,67.388,0,0,1,5.08,15.775,4.2,4.2,0,0,0,.242.7Z" transform="translate(-230.304 -73.629)" fill="#ffcb00"/>
    <path id="Path_5" data-name="Path 5" d="M101.671,147.859a45.444,45.444,0,1,1,45.543-45.3,45.619,45.619,0,0,1-45.543,45.3m-17.3-34.146-.4-.522c.832-.685,1.657-1.381,2.5-2.053,1.765-1.408,3.571-2.768,5.307-4.212,4.388-3.651,6.873-8.135,5.977-14.042a11.222,11.222,0,0,0-12.543-9.141c-5.4.882-8.893,4.452-9.736,9.966-.4,2.608,1.037,4.683,3.406,4.922,2.106.212,3.831-1.5,4.04-4.013a3.773,3.773,0,0,1,7.535.175,6.759,6.759,0,0,1-2.606,5.59c-1.966,1.686-4.038,3.249-6.055,4.877-3.782,3.051-6.252,6.817-6.4,11.832a3.815,3.815,0,0,0,3.9,4.14c4.939.043,9.878.032,14.816,0a3.808,3.808,0,0,0,3.6-2.457,3.76,3.76,0,0,0-3.7-5.054c-3.216-.045-6.432-.01-9.649-.01m36.223-7.53v1.476c0,3.22-.023,6.439.011,9.659a3.734,3.734,0,0,0,2.891,3.763,3.5,3.5,0,0,0,3.978-1.625,5.9,5.9,0,0,0,.631-2.621c.043-9.617.027-19.234.026-28.852a7.724,7.724,0,0,0-.021-.877,3.844,3.844,0,0,0-3.026-3.413,3.481,3.481,0,0,0-3.775,1.6,5.837,5.837,0,0,0-.684,2.6c-.075,3.541-.031,7.085-.031,10.675H113.06V97.267c0-3.178.01-6.356,0-9.533a3.92,3.92,0,0,0-2.44-3.87,3.764,3.764,0,0,0-5.085,3.781c-.031,4.683-.012,9.366-.008,14.05q0,4.479,4.453,4.487c3.471.006,6.941,0,10.616,0" transform="translate(-37.41 -37.857)" fill="#ffcb00"/>
    <path id="Path_6" data-name="Path 6" d="M207.033,0c3.3.848,6.632,1.6,9.9,2.576,2.311.688,4.551,1.626,6.792,2.529a3.8,3.8,0,0,1,2.4,5.049c-.839,2.084-3,2.9-5.317,1.948A59.555,59.555,0,0,0,206.1,7.762a3.73,3.73,0,0,1-3.086-4.214A4.293,4.293,0,0,1,207.033,0" transform="translate(-134.884)" fill="#ffcb00"/>
    <path id="Path_7" data-name="Path 7" d="M129.85.865c2.464-.032,4.159,1.341,4.369,3.224a3.76,3.76,0,0,1-3.174,4.265,60.862,60.862,0,0,0-14.362,4.195,6.053,6.053,0,0,1-3.122.329A3.225,3.225,0,0,1,110.9,9.924,3.375,3.375,0,0,1,112.7,6.1,59.945,59.945,0,0,1,129.85.865" transform="translate(-73.654 -0.574)" fill="#ffcb00"/>
    <path id="Path_8" data-name="Path 8" d="M292.933,36.8a11.587,11.587,0,0,1,2.33,1.053,61.675,61.675,0,0,1,12.051,12,3.84,3.84,0,0,1-.535,5.477,3.768,3.768,0,0,1-5.43-.816,60.935,60.935,0,0,0-10.712-10.7,3.661,3.661,0,0,1-1.334-4.341,4.115,4.115,0,0,1,3.63-2.675" transform="translate(-192.075 -24.455)" fill="#ffcb00"/>
  </g>
</svg>
