<svg id="Group_18" data-name="Group 18" xmlns="http://www.w3.org/2000/svg" xmlns:xlink="http://www.w3.org/1999/xlink" width="111.219" height="111.219" viewBox="0 0 111.219 111.219">
  <defs>
    <clipPath id="clip-path">
      <rect id="Rectangle_11" data-name="Rectangle 11" width="111.219" height="111.219" fill="#ffcb00"/>
    </clipPath>
  </defs>
  <g id="Group_17" data-name="Group 17" clip-path="url(#clip-path)">
    <path id="Path_29" data-name="Path 29" d="M40.622,0c1.711.221,3.429.4,5.133.671,7.068,1.122,13.808,3.147,19.572,7.588a22.1,22.1,0,0,1,3.986,3.959c4.075,5.286,3.714,11.543-.815,16.5-3.753,4.105-8.56,6.466-13.743,8.127A61.578,61.578,0,0,1,31.4,39.366a52.974,52.974,0,0,1-19.437-4.794c-3.76-1.8-7.25-4.031-9.576-7.584A36.253,36.253,0,0,1,0,21.723V18.247c1.437-6,5.626-9.633,10.736-12.448A47.356,47.356,0,0,1,26.917.662C28.586.417,30.261.219,31.932,0Z" fill="#ffcb00"/>
    <path id="Path_30" data-name="Path 30" d="M0,118.269c2.573,1.786,5.03,3.775,7.743,5.314A49.062,49.062,0,0,0,23.9,128.918a69.958,69.958,0,0,0,17.286.867c1.33-.1,2.657-.251,4.177-.4-.278.337-.452.577-.654.791a41.5,41.5,0,0,0-7.965,11.937,1.3,1.3,0,0,1-1.441.929c-8.478-.159-16.673-1.582-24.3-5.46-3.387-1.721-6.521-3.851-8.607-7.1A38.209,38.209,0,0,1,0,125.22v-6.951" transform="translate(0 -83.947)" fill="#ffcb00"/>
    <path id="Path_31" data-name="Path 31" d="M0,253.006c2.479,1.731,4.843,3.666,7.462,5.15a47.913,47.913,0,0,0,16.883,5.49c3,.437,6.033.6,9.046.943a1.243,1.243,0,0,1,.913.616,44.961,44.961,0,0,0,5.171,12.1c.031.05,0,.136,0,.27a3.419,3.419,0,0,1-.6.125c-9.82.342-19.319-.988-28.169-5.539a20.573,20.573,0,0,1-8.32-6.943A38.8,38.8,0,0,1,0,259.957v-6.951" transform="translate(0 -179.583)" fill="#ffcb00"/>
    <path id="Path_32" data-name="Path 32" d="M0,185.637c2.479,1.731,4.845,3.659,7.46,5.151a48.416,48.416,0,0,0,16.665,5.477c3.273.514,6.587.771,10.03,1.161-.77,4.108-1.472,8.331-.916,12.822-1.524-.107-2.956-.148-4.372-.316a51.747,51.747,0,0,1-18.013-5.125,26.771,26.771,0,0,1-6.983-5.085A15.6,15.6,0,0,1,0,192.588v-6.951" transform="translate(0 -131.765)" fill="#ffcb00"/>
    <path id="Path_33" data-name="Path 33" d="M207.922,172.173a35.841,35.841,0,1,1-35.663-35.934,35.822,35.822,0,0,1,35.663,35.934m-26.054-6.647c-.286-4.032-2.066-6.981-5.647-8.7a1.337,1.337,0,0,1-.9-1.46c.044-2.011.015-4.023.015-6h-6.519c0,2.042-.043,4,.021,5.949a1.394,1.394,0,0,1-.95,1.537,9.571,9.571,0,0,0-4.439,13.216,9.725,9.725,0,0,0,8.739,5.282,3.221,3.221,0,0,1,3.143,3.538,3.265,3.265,0,0,1-3.6,2.966c-1.536-.133-2.523-1.174-3.021-3.183H162.3a9.617,9.617,0,0,0,5.45,8.575,1.624,1.624,0,0,1,1.1,1.776c-.078,1.936-.024,3.877-.024,5.785h6.519c0-2.042.042-4-.021-5.949a1.4,1.4,0,0,1,.95-1.54,9.575,9.575,0,0,0,4.438-13.216,9.7,9.7,0,0,0-8.74-5.28,3.259,3.259,0,1,1,.355-6.508c1.595.086,2.617,1.128,3.137,3.217Z" transform="translate(-96.703 -96.702)" fill="#ffcb00"/>
  </g>
</svg>
