<svg id="Group_8" data-name="Group 8" xmlns="http://www.w3.org/2000/svg" xmlns:xlink="http://www.w3.org/1999/xlink" width="131.476" height="128.424" viewBox="0 0 131.476 128.424">
  <defs>
    <clipPath id="clip-path">
      <rect id="Rectangle_7" data-name="Rectangle 7" width="131.476" height="128.424" fill="#ffcb00"/>
    </clipPath>
  </defs>
  <g id="Group_7" data-name="Group 7" clip-path="url(#clip-path)">
    <path id="Path_16" data-name="Path 16" d="M21.8,104.915c0-1.474.024-2.64-.007-3.8a2.147,2.147,0,0,0-1.718-2.244c-2.16-.547-4.326-1.074-6.48-1.645a25.536,25.536,0,0,1-2.919-.925c-3.977-1.585-5.605-4.907-4.338-9a45.655,45.655,0,0,1,1.825-4.517c.515-1.2,1.133-2.346,1.638-3.544.941-2.229.811-2.769-1.045-4.328C7.082,73.5,5.315,72.2,3.68,70.743q-7.38-6.561.037-13.107C5.285,56.246,6.97,54.99,8.58,53.648c2.1-1.752,2.227-2.262,1.114-4.782-.676-1.531-1.461-3.013-2.14-4.542A27.215,27.215,0,0,1,6.365,41.2c-1.292-4.252.3-7.618,4.5-9.123,2.351-.842,4.83-1.325,7.253-1.967.449-.119.907-.208,1.351-.344,1.944-.6,2.262-1.031,2.359-3.075a83.719,83.719,0,0,1,.542-9.464c.695-4.263,3.97-6.4,8.268-5.738,2.891.446,5.761,1.05,8.624,1.656a2.424,2.424,0,0,0,2.982-1.416c.733-1.452,1.423-2.928,2.2-4.357a36.935,36.935,0,0,1,2.616-4.438A6.483,6.483,0,0,1,55.855.926a44.8,44.8,0,0,1,4.835,3.3c1.1.784,2.17,1.608,3.224,2.449a2.666,2.666,0,0,0,3.677-.024c1.5-1.179,3-2.373,4.541-3.492A25.861,25.861,0,0,1,75.764.817a6.451,6.451,0,0,1,8.478,1.947,41.572,41.572,0,0,1,2.979,5.03c.766,1.381,1.439,2.814,2.171,4.215a2.158,2.158,0,0,0,2.574,1.172c2.919-.573,5.826-1.22,8.763-1.676,4.766-.741,8.249,2.031,8.612,6.862.209,2.784.191,5.585.291,8.378.071,1.972.4,2.475,2.272,2.989,2.328.639,4.691,1.146,7.03,1.748a13.515,13.515,0,0,1,2.1.751c3.868,1.714,5.4,4.856,4.066,8.875-.8,2.414-1.98,4.7-3.022,7.036-1.517,3.4-1.491,3.574,1.377,5.984,1.711,1.438,3.536,2.76,5.123,4.324,3.877,3.818,3.872,7.736-.04,11.546-1.8,1.75-3.846,3.239-5.774,4.855s-2.069,2.154-1.093,4.436c.64,1.5,1.4,2.939,2.053,4.429a32.362,32.362,0,0,1,1.37,3.5c1.286,4.2-.252,7.554-4.376,9.074a74.17,74.17,0,0,1-7.385,2.007c-3.571.91-3.612.979-3.754,4.684a63.171,63.171,0,0,1-.521,8.342c-.709,4.087-3.972,6.245-8.109,5.615-2.938-.448-5.852-1.067-8.762-1.678a2.43,2.43,0,0,0-2.98,1.425c-.732,1.453-1.436,2.922-2.2,4.36a38.085,38.085,0,0,1-2.2,3.882c-2.521,3.652-6.025,4.5-9.834,2.244a52.447,52.447,0,0,1-5.405-3.952c-3.735-2.914-4-2.909-7.731.035a53.215,53.215,0,0,1-5.292,3.872c-3.776,2.286-7.405,1.531-9.838-2.151a80.45,80.45,0,0,1-3.819-7.12c-1.511-2.883-1.851-3.04-5.058-2.369-2.319.485-4.631,1.031-6.97,1.39-4.969.762-8.368-1.968-8.774-6.969-.143-1.763-.206-3.532-.289-4.995m23.024-16.43A22.872,22.872,0,0,0,47.571,86.5q20.205-20.14,40.363-40.327c1.852-1.852,2.109-3.606.735-4.949s-3.073-1.042-4.947.832Q63.646,62.124,43.574,82.2c-.395.395-.989.766-1.094,1.238a5.272,5.272,0,0,0-.14,2.988c.36.812,1.491,1.282,2.487,2.061m-4.4-39.413A10.432,10.432,0,0,0,50.592,59.721,10.565,10.565,0,0,0,61.24,49.5,10.433,10.433,0,0,0,51.019,38.912,10.311,10.311,0,0,0,40.431,49.073M80.62,89.511a10.412,10.412,0,0,0,.058-20.824A10.577,10.577,0,0,0,70.21,79.1,10.453,10.453,0,0,0,80.62,89.511" transform="translate(0 0)" fill="#ffcb00"/>
    <path id="Path_17" data-name="Path 17" d="M132.964,124.424a4.67,4.67,0,0,1-4.623,4.47,4.586,4.586,0,0,1-4.4-4.661,4.477,4.477,0,0,1,4.516-4.368,4.592,4.592,0,0,1,4.507,4.559" transform="translate(-77.627 -75.074)" fill="#ffcb00"/>
    <path id="Path_18" data-name="Path 18" d="M212.727,204.169a4.5,4.5,0,0,1-4.547,4.48,4.6,4.6,0,0,1-4.48-4.443,4.674,4.674,0,0,1,4.511-4.584,4.587,4.587,0,0,1,4.516,4.546" transform="translate(-127.582 -125.029)" fill="#ffcb00"/>
  </g>
</svg>
