<svg xmlns="http://www.w3.org/2000/svg" width="10.942" height="9.538" viewBox="0 0 10.942 9.538">
  <g id="Group_383" data-name="Group 383" transform="translate(973.208 269.669)">
    <g id="Group_382" data-name="Group 382" transform="translate(-977.733 -274.9)">
      <path id="Path_1671" data-name="Path 1671" d="M-833.522-106.558h.178c1.1,0,2.207.01,3.31.01,1.544,0,3.089-.007,4.634-.009a.625.625,0,0,1,.66.522.619.619,0,0,1-.629.728c-.626,0-1.253,0-1.879,0h-6.266c.063.07.1.116.142.158l2.15,2.151c.269.27.539.539.805.811a.62.62,0,0,1-.18.936.61.61,0,0,1-.794-.142l-4.042-4.043a.635.635,0,0,1,0-1q1.926-1.925,3.852-3.85a3.23,3.23,0,0,1,.337-.313.621.621,0,0,1,.837.16.584.584,0,0,1-.026.771c-.34.357-.693.7-1.042,1.05l-1.9,1.9C-833.412-106.675-833.451-106.633-833.522-106.558Z" transform="translate(840.201 115.932)" fill="#004e9c"/>
    </g>
  </g>
</svg>
