<svg id="Group_12" data-name="Group 12" xmlns="http://www.w3.org/2000/svg" xmlns:xlink="http://www.w3.org/1999/xlink" width="129.213" height="129.234" viewBox="0 0 129.213 129.234">
  <defs>
    <clipPath id="clip-path">
      <rect id="Rectangle_8" data-name="Rectangle 8" width="129.213" height="129.234" fill="#ffcb00"/>
    </clipPath>
  </defs>
  <g id="Group_11" data-name="Group 11" clip-path="url(#clip-path)">
    <path id="Path_19" data-name="Path 19" d="M129.213,328.853c-.807,1.952-2.212,2.57-4.354,2.567q-60.373-.092-120.746-.045c-3.349,0-4.772-1.9-3.826-5.173q6.608-22.887,13.239-45.766c.629-2.174,1.245-4.351,1.886-6.521a3.786,3.786,0,0,1,4.14-3.1c3.365,0,6.73-.024,10.093.025a1.935,1.935,0,0,1,1.365.58q11.013,14.594,21.953,29.243a2.3,2.3,0,0,1,.178.355l-.611.184c-2.047.626-3.282,2.277-3.034,4.059a3.927,3.927,0,0,0,4.169,3.4c4.668.015,9.337,0,14.005,0h7.318c2.754,0,4.368-1.148,4.722-3.351.31-1.936-.98-3.487-3.7-4.328,1.974-2.643,3.92-5.253,5.873-7.859q7.975-10.645,15.938-21.3a2.229,2.229,0,0,1,2.068-1.042c3.279.066,6.561.021,9.841.027,2.226,0,3.434.933,4.083,3.17q4.292,14.791,8.568,29.587,3.285,11.352,6.567,22.7a3.972,3.972,0,0,0,.26.56Zm-102.4-42.9c-1.178,0-2.356-.015-3.533,0a3.792,3.792,0,1,0-.061,7.564c1.556.029,3.119-.076,4.666.044a3.423,3.423,0,0,1,1.939.822c1.876,1.748,3.649,3.606,5.469,5.414a3.745,3.745,0,1,0,5.478-5.106c-1.594-1.731-3.434-3.246-4.946-5.041-2.4-2.845-5.128-4.6-9.011-3.7m75.695,0c-.883,0-1.771.054-2.649-.011a5.412,5.412,0,0,0-4.594,1.862c-2.047,2.172-4.208,4.237-6.316,6.352-1.959,1.966-2.15,4.1-.524,5.771,1.657,1.7,3.828,1.524,5.862-.491,1.7-1.687,3.355-3.428,5.115-5.053a3.44,3.44,0,0,1,1.941-.818c1.547-.119,3.11-.013,4.665-.045a3.787,3.787,0,1,0,.032-7.561c-1.177-.027-2.355,0-3.533-.006M30.634,308.663c-2.434,0-4.868-.015-7.3,0a3.794,3.794,0,1,0-.064,7.561q7.238.037,14.477,0a3.9,3.9,0,0,0,4.142-3.814c-.025-2.153-1.784-3.735-4.2-3.75-2.35-.015-4.7,0-7.05,0m68.128,0c-2.392,0-4.784-.009-7.176,0-2.488.012-4.292,1.641-4.258,3.822a3.923,3.923,0,0,0,4.213,3.744q7.113.023,14.226,0c2.491-.007,4.292-1.644,4.258-3.826-.033-2.155-1.789-3.726-4.213-3.741-2.35-.014-4.7,0-7.05,0" transform="translate(0 -202.186)" fill="#ffcb00"/>
    <path id="Path_20" data-name="Path 20" d="M143.425,0c18.455.245,34.53,14.019,37.306,32.166a37.626,37.626,0,0,1-7.507,29.51c-8.867,11.733-17.652,23.529-26.477,35.294-2.007,2.676-4.74,2.662-6.764-.034q-13.508-17.993-27-36C96.58,38.93,108.49,7.022,135.335,1.093c2.648-.585,5.391-.74,8.09-1.094m.052,19.413A18.927,18.927,0,1,0,162.3,38.47a19.051,19.051,0,0,0-18.825-19.058" transform="translate(-78.768 0.001)" fill="#ffcb00"/>
    <path id="Path_21" data-name="Path 21" d="M221.564,129.231a11.354,11.354,0,1,1,11.358-11.351,11.312,11.312,0,0,1-11.358,11.351" transform="translate(-156.96 -79.536)" fill="#ffcb00"/>
  </g>
</svg>
