<svg id="Group_6" data-name="Group 6" xmlns="http://www.w3.org/2000/svg" xmlns:xlink="http://www.w3.org/1999/xlink" width="122.306" height="138.494" viewBox="0 0 122.306 138.494">
  <defs>
    <clipPath id="clip-path">
      <rect id="Rectangle_6" data-name="Rectangle 6" width="122.306" height="138.494" fill="#ffcb00"/>
    </clipPath>
  </defs>
  <g id="Group_5" data-name="Group 5" clip-path="url(#clip-path)">
    <path id="Path_9" data-name="Path 9" d="M143.781,303.748a14.368,14.368,0,0,1-5.809-3.975c-5.177-5.085-10.412-10.11-15.63-15.153-.349-.337-.749-.622-1.053-.872l11.6-11.578,8.053,7.751c1.981-1.944,3.971-3.775,5.813-5.744a3.83,3.83,0,0,0-.23-5.477c-1.572-1.609-3.218-3.145-4.987-4.864l6.723-5.1a77.1,77.1,0,0,1,5.3,5.687,11.832,11.832,0,0,1-.847,15.365c-1.847,1.965-3.882,3.755-5.848,5.641,1.58,1.629,2.981,3.063,4.37,4.509a8.059,8.059,0,0,1-.765,12.045,20.1,20.1,0,0,1-3.436,1.764Z" transform="translate(-77.467 -165.254)" fill="#ffcb00"/>
    <path id="Path_10" data-name="Path 10" d="M100.367,62.641,150.8,113.069c-15.295,2.8-28.665,9.75-40.435,19.635L80.914,103.266a87.308,87.308,0,0,0,19.453-40.625" transform="translate(-51.679 -40.009)" fill="#ffcb00"/>
    <path id="Path_11" data-name="Path 11" d="M23.591,192.786l28.675,28.655c-.191.214-.438.52-.715.8q-9.267,9.275-18.542,18.543c-5.727,5.715-12.86,5.7-18.589-.024Q9.257,235.6,4.1,230.435c-5.46-5.483-5.464-12.732-.006-18.2Q13.4,202.912,22.734,193.6c.313-.312.639-.611.857-.819m5.442,18.737a7.376,7.376,0,0,0-2.174,1.06c-2.146,1.988-4.231,4.051-6.209,6.205a3.961,3.961,0,0,0,.241,5.4,3.908,3.908,0,0,0,5.491.127q3.145-2.963,6.106-6.119a3.7,3.7,0,0,0,.589-4.278c-.7-1.555-1.994-2.236-4.044-2.394" transform="translate(0 -123.132)" fill="#ffcb00"/>
    <path id="Path_12" data-name="Path 12" d="M147.328,2.956a8.239,8.239,0,0,1,5.616,2.1c.268.24.524.5.779.751Q180.26,32.345,206.8,58.873c2.307,2.3,3.406,4.935,2.615,8.186A8.119,8.119,0,0,1,196.233,71.3c-.342-.293-.659-.616-.977-.934Q168.715,43.837,142.178,17.3c-3.285-3.286-3.77-7.525-1.25-10.984a7.939,7.939,0,0,1,6.4-3.362" transform="translate(-88.988 -1.888)" fill="#ffcb00"/>
    <path id="Path_13" data-name="Path 13" d="M275.439,38.664c-2.129-.117-3.408-.853-4.09-2.393a3.789,3.789,0,0,1,.642-4.4q4.167-4.328,8.5-8.493a4.023,4.023,0,0,1,5.516.147,3.879,3.879,0,0,1,.343,5.387c-2.852,3.057-5.853,5.981-8.882,8.865a5.637,5.637,0,0,1-2.028.886" transform="translate(-173.042 -14.278)" fill="#ffcb00"/>
    <path id="Path_14" data-name="Path 14" d="M226.127,8.118c0-1.4-.038-2.793.008-4.188A3.959,3.959,0,0,1,230.1,0a4,4,0,0,1,4.141,3.918q.088,4.186,0,8.375a4.006,4.006,0,0,1-4.129,3.932,3.961,3.961,0,0,1-3.979-3.92c-.048-1.394-.009-2.792-.009-4.188" transform="translate(-144.417 0)" fill="#ffcb00"/>
    <path id="Path_15" data-name="Path 15" d="M301.583,97.925c-1.351,0-2.7.022-4.053,0a4.05,4.05,0,0,1,.01-8.1q4.121-.044,8.242,0a4.049,4.049,0,0,1-.009,8.1c-1.4.026-2.792,0-4.189,0" transform="translate(-187.488 -57.354)" fill="#ffcb00"/>
  </g>
</svg>
