<svg xmlns="http://www.w3.org/2000/svg" width="15" height="20.769" viewBox="0 0 15 20.769">
  <g id="location" transform="translate(-76)">
    <path id="Path_1708" data-name="Path 1708" d="M82.98,20.5a.635.635,0,0,0,1.04,0c1.479-2.16,3.658-4.828,5.176-7.541A11.857,11.857,0,0,0,91,7.3a7.5,7.5,0,0,0-15,0,11.858,11.858,0,0,0,1.8,5.656C79.321,15.669,81.5,18.343,82.98,20.5ZM83.5,1.217A6.176,6.176,0,0,1,89.75,7.3,10.744,10.744,0,0,1,88.1,12.376a76.419,76.419,0,0,1-4.6,6.7,76.418,76.418,0,0,1-4.6-6.7A10.744,10.744,0,0,1,77.25,7.3,6.176,6.176,0,0,1,83.5,1.217Z" fill="#ffd605"/>
    <path id="Path_1709" data-name="Path 1709" d="M169.651,97.3A3.651,3.651,0,1,0,166,93.651,3.655,3.655,0,0,0,169.651,97.3Zm0-6.085a2.434,2.434,0,1,1-2.434,2.434A2.437,2.437,0,0,1,169.651,91.217Z" transform="translate(-86.151 -86.349)" fill="#ffd605"/>
  </g>
</svg>
