<svg id="time" xmlns="http://www.w3.org/2000/svg" width="18" height="18" viewBox="0 0 18 18">
  <g id="Group_489" data-name="Group 489">
    <path id="Path_1710" data-name="Path 1710" d="M9,18A9,9,0,1,0,0,9,9.011,9.011,0,0,0,9,18ZM9,1.2A7.8,7.8,0,1,1,1.2,9,7.807,7.807,0,0,1,9,1.2Z" fill="#ffd605"/>
    <path id="Path_1711" data-name="Path 1711" d="M170.892,80.126a.591.591,0,0,0,.375.132.6.6,0,0,0,.375-1.068l-2.775-2.22V72.458a.6.6,0,0,0-1.2,0v4.8a.6.6,0,0,0,.225.468Z" transform="translate(-159.267 -68.258)" fill="#ffd605"/>
  </g>
</svg>
